<svg width="1440" height="600" viewBox="0 0 1440 600" fill="none" xmlns="http://www.w3.org/2000/svg">
<path d="M0 168.387V336.774L3.525 338.956C12 344.208 85.8 383.961 108.75 395.758C266.025 476.316 406.5 534.249 527.625 568.347C581.1 583.375 631.8 593.395 679.875 598.485C699 600.505 753.975 600.505 774 598.485C892.95 586.365 1045.57 536.269 1226.62 449.813C1293.83 417.736 1378.13 373.376 1430.48 342.43L1440 336.774V168.387V1.59312e-06H720H0V168.387Z" fill="#3C5DC0"/>
<path d="M1097 -15.5C1097 208.451 928.211 390 720 390C511.789 390 343 208.451 343 -15.5C343 -239.451 511.789 -421 720 -421C928.211 -421 1097 -239.451 1097 -15.5Z" fill="#4566DA"/>
<circle cx="719.5" cy="37.5" r="240.5" fill="#2D09CB"/>
<path d="M866 19C866 100.186 800.41 166 719.5 166C638.59 166 573 100.186 573 19C573 -62.1859 638.59 -128 719.5 -128C800.41 -128 866 -62.1859 866 19Z" fill="#6B7AF5"/>
</svg>
