<?xml version="1.0" encoding="UTF-8"?>
<svg xmlns="http://www.w3.org/2000/svg" xmlns:xlink="http://www.w3.org/1999/xlink" width="1440pt" height="320pt" viewBox="0 0 1440 320" version="1.1">
<defs>
<clipPath id="clip1">
  <path d="M 0 1.953125 L 1440 1.953125 L 1440 320 L 0 320 Z M 0 1.953125 "/>
</clipPath>
</defs>
<g id="surface1">
<rect x="0" y="0" width="1440" height="320" style="fill:rgb(89.803922%,89.803922%,89.803922%);fill-opacity:1;stroke:none;"/>
<g clip-path="url(#clip1)" clip-rule="nonzero">
<path style=" stroke:none;fill-rule:nonzero;fill:rgb(100%,100%,100%);fill-opacity:1;" d="M 0 1.953125 L 1440 1.953125 L 1440 501.464844 L 0 501.464844 Z M 0 1.953125 "/>
</g>
<path style=" stroke:none;fill-rule:nonzero;fill:rgb(23.529412%,36.470588%,75.294118%);fill-opacity:1;" d="M 0 88.011719 L 0 176.378906 L 3.523438 177.523438 C 12 180.28125 85.800781 201.144531 108.75 207.335938 C 266.023438 249.609375 406.5 280.011719 527.625 297.90625 C 581.101562 305.792969 631.800781 311.050781 679.875 313.722656 C 699 314.78125 753.976562 314.78125 774 313.722656 C 892.949219 307.363281 1045.570312 281.074219 1226.621094 235.703125 C 1293.828125 218.867188 1378.128906 195.589844 1430.480469 179.347656 L 1440 176.378906 L 1440 -0.355469 L 0 -0.355469 Z M 0 88.011719 "/>
<path style=" stroke:none;fill-rule:nonzero;fill:rgb(27.058824%,40%,85.490196%);fill-opacity:1;" d="M 1182 -0.105469 C 1182 126.996094 974.933594 230.03125 719.5 230.03125 C 464.066406 230.03125 257 126.996094 257 -0.105469 C 257 -127.207031 464.066406 -230.242188 719.5 -230.242188 C 974.933594 -230.242188 1182 -127.207031 1182 -0.105469 Z M 1182 -0.105469 "/>
<path style=" stroke:none;fill-rule:nonzero;fill:rgb(17.647059%,3.529412%,79.607843%);fill-opacity:1;" d="M 1033 -0.730469 C 1033 83.726562 892.640625 152.195312 719.5 152.195312 C 546.359375 152.195312 406 83.726562 406 -0.730469 C 406 -85.191406 546.359375 -153.660156 719.5 -153.660156 C 892.640625 -153.660156 1033 -85.191406 1033 -0.730469 Z M 1033 -0.730469 "/>
<path style=" stroke:none;fill-rule:nonzero;fill:rgb(41.960784%,47.843137%,96.078431%);fill-opacity:1;" d="M 879 -0.242188 C 879 42.726562 807.589844 77.5625 719.5 77.5625 C 631.410156 77.5625 560 42.726562 560 -0.242188 C 560 -43.214844 631.410156 -78.046875 719.5 -78.046875 C 807.589844 -78.046875 879 -43.214844 879 -0.242188 Z M 879 -0.242188 "/>
</g>
</svg>
