<svg width="1440" height="350" viewBox="0 0 1440 350" fill="none" xmlns="http://www.w3.org/2000/svg">
<path d="M0 98.2258V196.452L3.525 197.724C12 200.788 85.8 223.977 108.75 230.859C266.025 277.851 406.5 311.645 527.625 331.536C581.1 340.302 631.8 346.147 679.875 349.116C699 350.295 753.975 350.295 774 349.116C892.95 342.046 1045.57 312.824 1226.62 262.391C1293.82 243.679 1378.13 217.803 1430.48 199.751L1440 196.452V98.2258V3.05176e-05H720H0V98.2258Z" fill="#3C5DC0"/>
<g filter="url(#filter0_d)">
<path d="M937 10.5C937 130.622 839.622 228 719.5 228C599.378 228 502 130.622 502 10.5C502 -109.622 599.378 -207 719.5 -207C839.622 -207 937 -109.622 937 10.5Z" fill="#456CDE"/>
</g>
<g filter="url(#filter1_d)">
<circle cx="719.5" cy="29.5" r="136.5" fill="#4B74F0"/>
</g>
<g filter="url(#filter2_d)">
<path d="M791 29.5C791 68.9884 759.212 101 720 101C680.788 101 649 68.9884 649 29.5C649 -9.98836 680.788 -42 720 -42C759.212 -42 791 -9.98836 791 29.5Z" fill="#5F87FF"/>
</g>
<defs>
<filter id="filter0_d" x="472" y="-237" width="495" height="495" filterUnits="userSpaceOnUse" color-interpolation-filters="sRGB">
<feFlood flood-opacity="0" result="BackgroundImageFix"/>
<feColorMatrix in="SourceAlpha" type="matrix" values="0 0 0 0 0 0 0 0 0 0 0 0 0 0 0 0 0 0 127 0"/>
<feOffset/>
<feGaussianBlur stdDeviation="15"/>
<feColorMatrix type="matrix" values="0 0 0 0 0 0 0 0 0 0 0 0 0 0 0 0 0 0 0.25 0"/>
<feBlend mode="normal" in2="BackgroundImageFix" result="effect1_dropShadow"/>
<feBlend mode="normal" in="SourceGraphic" in2="effect1_dropShadow" result="shape"/>
</filter>
<filter id="filter1_d" x="553" y="-137" width="333" height="333" filterUnits="userSpaceOnUse" color-interpolation-filters="sRGB">
<feFlood flood-opacity="0" result="BackgroundImageFix"/>
<feColorMatrix in="SourceAlpha" type="matrix" values="0 0 0 0 0 0 0 0 0 0 0 0 0 0 0 0 0 0 127 0"/>
<feOffset/>
<feGaussianBlur stdDeviation="15"/>
<feColorMatrix type="matrix" values="0 0 0 0 0 0 0 0 0 0 0 0 0 0 0 0 0 0 0.25 0"/>
<feBlend mode="normal" in2="BackgroundImageFix" result="effect1_dropShadow"/>
<feBlend mode="normal" in="SourceGraphic" in2="effect1_dropShadow" result="shape"/>
</filter>
<filter id="filter2_d" x="619" y="-72" width="202" height="203" filterUnits="userSpaceOnUse" color-interpolation-filters="sRGB">
<feFlood flood-opacity="0" result="BackgroundImageFix"/>
<feColorMatrix in="SourceAlpha" type="matrix" values="0 0 0 0 0 0 0 0 0 0 0 0 0 0 0 0 0 0 127 0"/>
<feOffset/>
<feGaussianBlur stdDeviation="15"/>
<feColorMatrix type="matrix" values="0 0 0 0 0 0 0 0 0 0 0 0 0 0 0 0 0 0 0.25 0"/>
<feBlend mode="normal" in2="BackgroundImageFix" result="effect1_dropShadow"/>
<feBlend mode="normal" in="SourceGraphic" in2="effect1_dropShadow" result="shape"/>
</filter>
</defs>
</svg>
